<?xml version="1.0" encoding="UTF-8" standalone="no"?>
<svg
   height="16"
   width="16"
   version="1.1"
   id="svg186"
   sodipodi:docname="editor_icon.svg"
   inkscape:version="1.2.1 (9c6d41e410, 2022-07-14)"
   xmlns:inkscape="http://www.inkscape.org/namespaces/inkscape"
   xmlns:sodipodi="http://sodipodi.sourceforge.net/DTD/sodipodi-0.dtd"
   xmlns="http://www.w3.org/2000/svg"
   xmlns:svg="http://www.w3.org/2000/svg">
  <defs
     id="defs190" />
  <sodipodi:namedview
     id="namedview188"
     pagecolor="#ffffff"
     bordercolor="#666666"
     borderopacity="1.0"
     inkscape:showpageshadow="2"
     inkscape:pageopacity="0.0"
     inkscape:pagecheckerboard="0"
     inkscape:deskcolor="#d1d1d1"
     showgrid="false"
     inkscape:zoom="18.384776"
     inkscape:cx="5.575265"
     inkscape:cy="11.857637"
     inkscape:window-width="1920"
     inkscape:window-height="1009"
     inkscape:window-x="-8"
     inkscape:window-y="-8"
     inkscape:window-maximized="1"
     inkscape:current-layer="svg186" />
  <g
     transform="translate(32,32)"
     id="g166"
     style="display:none">
    <path
       d="m -16,-32 c -8.86,0 -16,7.13 -16,15.99 v 95.98 c 0,8.86 7.13,15.99 16,15.99 h 96 c 8.86,0 16,-7.13 16,-15.99 V -16.01 C 96,-24.86 88.86,-32 80,-32 Z"
       fill="#363d52"
       id="path162" />
    <path
       d="m -16,-32 c -8.86,0 -16,7.13 -16,15.99 v 95.98 c 0,8.86 7.13,15.99 16,15.99 h 96 c 8.86,0 16,-7.13 16,-15.99 V -16.01 C 96,-24.86 88.86,-32 80,-32 Z m 0,4 h 96 c 6.64,0 12,5.35 12,11.99 v 95.98 c 0,6.64 -5.35,11.99 -12,11.99 h -96 c -6.64,0 -12,-5.35 -12,-11.99 v -95.98 c 0,-6.64 5.36,-11.99 12,-11.99 z"
       fill-opacity="0.4"
       id="path164" />
  </g>
  <g
     transform="matrix(0.10888129,0.03629135,0.03423331,-0.11542706,1.9822178,4.1836927)"
     id="g566"
     style="clip-rule:evenodd;fill-rule:evenodd;stroke-linejoin:round;stroke-miterlimit:2">
    <path
       d="m 4.043,-1.667 c -11.139,7.55 -11.679,18.182 -7.214,22.558 1.56,1.529 4.354,2.168 7.214,1.427 C 14.88,19.515 21.624,19.979 21.624,19.979 19.448,9.842 14.042,2.266 4.043,-1.667"
       style="fill:#ffffff;fill-rule:nonzero"
       id="path564" />
  </g>
  <g
     transform="matrix(0.11413613,0,0,0.1209978,2.3655216,1.1288718)"
     id="g570"
     style="clip-rule:evenodd;fill-rule:evenodd;stroke-linejoin:round;stroke-miterlimit:2">
    <path
       d="m 0,31.219 c -0.933,0 -1.858,-0.411 -2.485,-1.2 C -7.385,23.841 -9.429,16.788 -8.096,10.67 -7.19,6.524 -4.808,3.198 -1.555,1.542 1.478,0 5.471,0.36 8.869,2.48 c 8.867,5.531 15.081,7.099 15.143,7.114 1.695,0.418 2.738,2.13 2.325,3.828 -0.411,1.695 -2.11,2.743 -3.816,2.333 C 22.234,15.685 15.336,13.984 5.516,7.857 3.817,6.798 2.146,6.769 1.318,7.191 c -1.527,0.777 -2.731,2.583 -3.221,4.829 -0.927,4.253 0.67,9.378 4.385,14.061 1.086,1.371 0.857,3.365 -0.514,4.452 C 1.385,30.995 0.69,31.219 0,31.219"
       style="fill:#2f499d;fill-rule:nonzero"
       id="path568" />
  </g>
  <g
     transform="matrix(0.11413613,0,0,0.1209978,2.3655216,1.1288718)"
     id="g574"
     style="clip-rule:evenodd;fill-rule:evenodd;stroke-linejoin:round;stroke-miterlimit:2">
    <path
       d="m 0,31.219 c -0.933,0 -1.858,-0.411 -2.485,-1.2 C -7.385,23.841 -9.429,16.788 -8.096,10.67 -7.19,6.524 -4.808,3.198 -1.555,1.542 1.478,0 5.471,0.36 8.869,2.48 c 8.966,5.592 16.283,7.78 16.357,7.801 1.678,0.494 2.64,2.253 2.148,3.932 -0.491,1.679 -2.253,2.643 -3.926,2.152 C 23.119,16.269 15.271,13.944 5.516,7.857 3.817,6.798 2.146,6.769 1.318,7.191 c -1.527,0.777 -2.731,2.583 -3.221,4.829 -0.927,4.253 0.67,9.378 4.385,14.061 1.086,1.371 0.857,3.365 -0.514,4.452 C 1.385,30.995 0.69,31.219 0,31.219"
       style="fill:#2f499d;fill-rule:nonzero"
       id="path572" />
  </g>
  <g
     transform="matrix(0.11413613,0,0,0.1209978,2.5426151,3.4326961)"
     id="g578"
     style="clip-rule:evenodd;fill-rule:evenodd;stroke-linejoin:round;stroke-miterlimit:2">
    <path
       d="m 0,-14.615 c 0,0 1.483,13.367 9.446,14.615 l 11.087,-5.71 z"
       style="fill:#2f499d;fill-rule:nonzero"
       id="path576" />
  </g>
  <g
     transform="matrix(0.10888129,-0.03629135,-0.03423331,-0.11542706,14.01783,4.1836927)"
     id="g582"
     style="clip-rule:evenodd;fill-rule:evenodd;stroke-linejoin:round;stroke-miterlimit:2">
    <path
       d="M -4.043,-1.667 C 7.096,5.883 7.636,16.515 3.171,20.891 1.611,22.42 -1.183,23.059 -4.043,22.318 -14.88,19.515 -21.624,19.979 -21.624,19.979 -19.448,9.842 -14.042,2.266 -4.043,-1.667"
       style="fill:#ffffff;fill-rule:nonzero"
       id="path580" />
  </g>
  <g
     transform="matrix(0.11413613,0,0,0.1209978,13.634447,1.1288718)"
     id="g586"
     style="clip-rule:evenodd;fill-rule:evenodd;stroke-linejoin:round;stroke-miterlimit:2">
    <path
       d="m 0,31.219 c -0.69,0 -1.385,-0.224 -1.968,-0.686 -1.371,-1.087 -1.6,-3.081 -0.514,-4.452 C 1.233,21.398 2.83,16.273 1.903,12.02 1.413,9.774 0.209,7.968 -1.32,7.191 -2.148,6.77 -3.816,6.797 -5.515,7.857 c -9.821,6.127 -16.719,7.828 -17.007,7.898 -1.695,0.408 -3.413,-0.638 -3.821,-2.341 -0.409,-1.699 0.636,-3.408 2.333,-3.82 C -23.883,9.563 -17.688,7.981 -8.869,2.48 -5.471,0.36 -1.478,0 1.555,1.542 4.808,3.198 7.19,6.524 8.096,10.67 9.429,16.788 7.385,23.841 2.485,30.019 1.858,30.808 0.933,31.219 0,31.219"
       style="fill:#2f499d;fill-rule:nonzero"
       id="path584" />
  </g>
  <g
     transform="matrix(0.11413613,0,0,0.1209978,13.634447,1.1288718)"
     id="g590"
     style="clip-rule:evenodd;fill-rule:evenodd;stroke-linejoin:round;stroke-miterlimit:2">
    <path
       d="m 0,31.219 c -0.69,0 -1.385,-0.224 -1.968,-0.686 -1.371,-1.087 -1.6,-3.081 -0.514,-4.452 C 1.233,21.398 2.83,16.273 1.903,12.02 1.413,9.774 0.209,7.968 -1.32,7.191 -2.148,6.77 -3.816,6.797 -5.515,7.857 c -9.756,6.087 -17.602,8.412 -17.932,8.508 -1.673,0.49 -3.438,-0.475 -3.929,-2.155 -0.49,-1.679 0.474,-3.437 2.151,-3.929 0.073,-0.021 7.39,-2.209 16.356,-7.801 C -5.471,0.36 -1.478,0 1.555,1.542 4.808,3.198 7.19,6.524 8.096,10.67 9.429,16.788 7.385,23.841 2.485,30.019 1.858,30.808 0.933,31.219 0,31.219"
       style="fill:#2f499d;fill-rule:nonzero"
       id="path588" />
  </g>
  <g
     transform="matrix(0.11413613,0,0,0.1209978,13.457423,3.4326961)"
     id="g594"
     style="clip-rule:evenodd;fill-rule:evenodd;stroke-linejoin:round;stroke-miterlimit:2">
    <path
       d="m 0,-14.615 c 0,0 -1.483,13.367 -9.446,14.615 l -11.087,-5.71 z"
       style="fill:#2f499d;fill-rule:nonzero"
       id="path592" />
  </g>
  <g
     transform="matrix(0,-0.1209978,-0.11413613,0,8.7623036,0.60233684)"
     id="g598"
     style="clip-rule:evenodd;fill-rule:evenodd;stroke-linejoin:round;stroke-miterlimit:2">
    <path
       d="m -69.771,-56.414 c -28.007,0 -44.392,28.248 -44.392,63.093 0,34.845 16.385,63.092 44.392,63.092 28.007,0 57.749,-28.247 57.749,-63.092 0,-34.845 -29.742,-63.093 -57.749,-63.093"
       style="fill:#ffffff;fill-rule:nonzero"
       id="path596" />
  </g>
  <g
     transform="matrix(0.11413613,0,0,0.1209978,6.9750573,10.332413)"
     id="g602"
     style="clip-rule:evenodd;fill-rule:evenodd;stroke-linejoin:round;stroke-miterlimit:2">
    <path
       d="m 0,-10.248 9.049,-3.588 9.05,3.976 v 4.466 c 0,4.96 -4.022,8.982 -8.982,8.982 H 8.981 C 4.021,3.588 0,-0.434 0,-5.394 Z"
       style="fill:#2f499d;fill-rule:nonzero"
       id="path600" />
  </g>
  <g
     transform="matrix(0.11413613,0,0,0.1209978,13.768554,3.7865665)"
     id="g606"
     style="clip-rule:evenodd;fill-rule:evenodd;stroke-linejoin:round;stroke-miterlimit:2">
    <path
       d="m 0,31.975 c -0.752,6.463 -6.528,11.997 -14.574,13.559 -3.371,-4.995 -21.009,-15.669 -36.058,-14.961 -8.907,-0.403 -24.807,3.842 -35.929,15.28 -5.284,-1.454 -14.704,0.417 -14.704,-13.878 0,-22.439 22.669,-46.27 50.633,-46.27 27.963,0 53.226,23.981 50.632,46.27"
       style="fill:#f8bd21;fill-rule:nonzero"
       id="path604" />
  </g>
  <g
     transform="matrix(0.11413613,0,0,0.1209978,-19.218385,-19.93349)"
     id="g614"
     style="clip-rule:evenodd;fill-rule:evenodd;stroke-linejoin:round;stroke-miterlimit:2">
    <g
       opacity="0.62"
       id="g612">
      <g
         transform="translate(232.243,214.136)"
         id="g610">
        <path
           d="m 0,8.796 c 0,-1.3 3.915,-10.612 5.538,-11.523 0.432,-0.243 0.953,-0.243 1.385,0 1.623,0.911 5.538,10.223 5.538,11.523 0,1.64 -2.79,2.97 -6.231,2.97 C 2.789,11.766 0,10.436 0,8.796"
           style="fill:#e6854f;fill-rule:nonzero"
           id="path608" />
      </g>
    </g>
  </g>
  <g
     transform="matrix(0.11413613,0,0,0.1209978,8,14.032285)"
     id="g618"
     style="clip-rule:evenodd;fill-rule:evenodd;stroke-linejoin:round;stroke-miterlimit:2">
    <path
       d="m 0,-95.803 c -27.711,0 -59.924,23.842 -59.924,54.58 C -59.924,-16.951 -35.282,0 0,0 35.282,0 59.924,-16.951 59.924,-41.223 59.924,-71.961 27.711,-95.803 0,-95.803 M 0,6.338 c -39.015,0 -66.262,-19.557 -66.262,-47.561 0,-28.757 28.338,-60.918 66.262,-60.918 37.924,0 66.262,32.161 66.262,60.918 C 66.262,-13.219 39.015,6.338 0,6.338"
       style="fill:#2f499d;fill-rule:nonzero"
       id="path616" />
  </g>
  <g
     transform="matrix(0.11413613,0,0,0.1209978,12.467747,7.9832419)"
     id="g622"
     style="clip-rule:evenodd;fill-rule:evenodd;stroke-linejoin:round;stroke-miterlimit:2">
    <path
       d="m 0,-19.385 c 7.248,6.573 3.475,18.375 -6.286,19.447 -1.497,-0.055 -4.472,0.795 -4.537,-1.433 0.035,-0.498 0.338,-0.873 0.731,-1.116 2.592,-1.683 5.911,-3.376 7.056,-6.213 1.176,-2.79 0.729,-6.121 0.741,-9.412 -0.177,-1.26 1.336,-2.13 2.295,-1.273"
       style="fill:#2f499d;fill-rule:nonzero"
       id="path620" />
  </g>
  <g
     transform="matrix(-0.10792792,-0.03936203,-0.03712986,0.11441636,12.848277,9.4624407)"
     id="g626"
     style="clip-rule:evenodd;fill-rule:evenodd;stroke-linejoin:round;stroke-miterlimit:2">
    <path
       d="M 7.659,-32.011 C -9.032,-25.106 -12.869,-3.424 7.052,1.931 7.634,2.077 8.066,1.326 7.659,0.896 -4.732,-11.683 -0.673,-18.137 8.372,-31.046 8.774,-31.517 8.223,-32.26 7.659,-32.011"
       style="fill:#2f499d;fill-rule:nonzero"
       id="path624" />
  </g>
  <g
     transform="matrix(0.11413613,0,0,0.1209978,3.641666,7.7217653)"
     id="g630"
     style="clip-rule:evenodd;fill-rule:evenodd;stroke-linejoin:round;stroke-miterlimit:2">
    <path
       d="M 0,-15.951 C -0.386,-7.2 -0.059,-4.758 7.797,-0.327 8.987,0.302 8.628,2.156 7.283,2.247 -0.53,3.255 -7.791,-3.262 -5.77,-11.313 c 0.368,-1.811 3.139,-7.893 5.428,-5.778 0.293,0.325 0.363,0.734 0.342,1.14"
       style="fill:#2f499d;fill-rule:nonzero"
       id="path628" />
  </g>
  <g
     transform="matrix(0.11413613,0,0,0.1209978,2.9003406,9.4432266)"
     id="g634"
     style="clip-rule:evenodd;fill-rule:evenodd;stroke-linejoin:round;stroke-miterlimit:2">
    <path
       d="m 0,-31.922 c -4.362,15.172 -6.078,22.577 9.717,30.436 0.533,0.27 0.351,1.134 -0.238,1.176 -13.999,1.408 -22.587,-10.664 -16.843,-23.433 1.53,-3.418 3.578,-6.453 6.376,-8.86 0.461,-0.417 1.213,0.107 0.988,0.681"
       style="fill:#2f499d;fill-rule:nonzero"
       id="path632" />
  </g>
  <g
     transform="matrix(-0.00263776,0.1209655,0.11410564,0.00279633,7.5315623,-0.02002491)"
     id="g638"
     style="clip-rule:evenodd;fill-rule:evenodd;stroke-linejoin:round;stroke-miterlimit:2">
    <path
       d="m 29.717,-19.726 c -10.925,13.628 -10.66,34.658 -1.158,48.955 0.353,0.561 1.274,0.203 1.158,-0.449 -2.383,-16.018 -2.726,-32.025 1.081,-47.896 0.215,-0.624 -0.66,-1.129 -1.081,-0.61"
       style="fill:#2f499d;fill-rule:nonzero"
       id="path636" />
  </g>
  <g
     transform="matrix(-0.0042079,0.12091553,0.11405851,0.00446087,7.6462917,2.3158534)"
     id="g642"
     style="clip-rule:evenodd;fill-rule:evenodd;stroke-linejoin:round;stroke-miterlimit:2">
    <path
       d="m 19.204,-11.23 c -8.741,7.162 -8.826,22.036 -1.139,29.979 0.407,0.438 1.177,0.093 1.139,-0.495 -0.527,-9.788 -0.634,-19.043 1.031,-28.793 0.158,-0.579 -0.559,-1.07 -1.031,-0.691"
       style="fill:#2f499d;fill-rule:nonzero"
       id="path640" />
  </g>
  <g
     transform="matrix(0.11413613,0,0,0.1209978,7.1662352,7.2324254)"
     id="g646"
     style="clip-rule:evenodd;fill-rule:evenodd;stroke-linejoin:round;stroke-miterlimit:2">
    <path
       d="m 0,16.208 c -3.155,0 -6.373,-1.651 -9.581,-4.921 -0.613,-0.624 -0.604,-1.627 0.022,-2.24 0.622,-0.613 1.624,-0.604 2.24,0.022 2.835,2.889 5.521,4.205 7.981,3.933 2.595,-0.296 4.382,-2.353 4.995,-3.166 V 1.584 C 5.657,0.709 6.366,0 7.242,0 8.117,0 8.826,0.709 8.826,1.584 V 10.78 L 8.592,11.161 C 8.482,11.342 5.823,15.603 1.021,16.15 0.682,16.189 0.34,16.208 0,16.208"
       style="fill:#2f499d;fill-rule:nonzero"
       id="path644" />
  </g>
  <g
     transform="matrix(0.11413613,0,0,0.1209978,8.9035243,7.2323783)"
     id="g650"
     style="clip-rule:evenodd;fill-rule:evenodd;stroke-linejoin:round;stroke-miterlimit:2">
    <path
       d="m 0,16.596 c -0.077,0 -0.155,-0.002 -0.232,-0.003 -5.256,-0.142 -8.755,-5.149 -8.9,-5.362 L -9.411,10.825 V 1.585 C -9.411,0.709 -8.702,0 -7.826,0 c 0.875,0 1.584,0.709 1.584,1.585 V 9.8 c 0.783,0.97 3.144,3.554 6.11,3.626 2.27,0.055 4.562,-1.394 6.803,-4.308 0.533,-0.694 1.527,-0.825 2.222,-0.289 0.694,0.533 0.823,1.528 0.29,2.222 -2.831,3.68 -5.92,5.545 -9.183,5.545"
       style="fill:#2f499d;fill-rule:nonzero"
       id="path648" />
  </g>
  <g
     transform="matrix(0.11413613,0,0,0.1209978,8.0422072,11.33938)"
     id="g654"
     style="clip-rule:evenodd;fill-rule:evenodd;stroke-linejoin:round;stroke-miterlimit:2">
    <path
       d="m 0,6.182 c -0.042,0 -0.084,0 -0.125,-0.001 C -3.833,6.112 -6.465,2.916 -6.575,2.779 -7.125,2.099 -7.02,1.101 -6.339,0.55 -5.663,0 -4.668,0.105 -4.116,0.78 -4.097,0.802 -2.276,2.981 -0.053,3.013 1.215,3.024 2.383,2.362 3.55,1.024 4.125,0.365 5.126,0.298 5.784,0.872 6.443,1.448 6.511,2.449 5.936,3.108 4.156,5.148 2.159,6.182 0,6.182"
       style="fill:#2f499d;fill-rule:nonzero"
       id="path652" />
  </g>
  <g
     transform="matrix(0,-0.1209978,-0.11413613,0,5.6331588,5.753119)"
     id="g658"
     style="clip-rule:evenodd;fill-rule:evenodd;stroke-linejoin:round;stroke-miterlimit:2">
    <path
       d="m -6.218,-6.218 c -4.425,0 -8.012,2.784 -8.012,6.218 0,3.434 3.587,6.218 8.012,6.218 4.425,0 8.012,-2.784 8.012,-6.218 0,-3.434 -3.587,-6.218 -8.012,-6.218"
       style="fill:#2f499d;fill-rule:nonzero"
       id="path656" />
  </g>
  <g
     transform="matrix(0,-0.1209978,-0.11413613,0,10.387864,5.753119)"
     id="g662"
     style="clip-rule:evenodd;fill-rule:evenodd;stroke-linejoin:round;stroke-miterlimit:2">
    <path
       d="m -6.218,-6.218 c -4.425,0 -8.012,2.784 -8.012,6.218 0,3.434 3.587,6.218 8.012,6.218 4.425,0 8.012,-2.784 8.012,-6.218 0,-3.434 -3.587,-6.218 -8.012,-6.218"
       style="fill:#2f499d;fill-rule:nonzero"
       id="path660" />
  </g>
  <g
     transform="matrix(0.11413613,0,0,0.1209978,8.6287071,7.4116604)"
     id="g666"
     style="clip-rule:evenodd;fill-rule:evenodd;stroke-linejoin:round;stroke-miterlimit:2">
    <path
       d="m 0,-1.543 c 0,1.104 -3.461,3.085 -4.896,3.859 -0.382,0.206 -0.842,0.206 -1.224,0 -1.436,-0.774 -4.896,-2.755 -4.896,-3.859 0,-1.393 2.466,-2.522 5.508,-2.522 3.042,0 5.508,1.129 5.508,2.522"
       style="fill:#c995a6;fill-rule:nonzero"
       id="path664" />
  </g>
  <g
     transform="matrix(0.11413613,0,0,0.1209978,7.5736673,7.4134142)"
     id="g670"
     style="clip-rule:evenodd;fill-rule:evenodd;stroke-linejoin:round;stroke-miterlimit:2">
    <path
       d="M 0,-1.623 C 0.512,-1.137 1.708,-0.272 3.735,0.83 5.764,-0.273 6.958,-1.138 7.471,-1.623 6.966,-1.984 5.679,-2.495 3.735,-2.495 1.792,-2.495 0.504,-1.984 0,-1.623 m 3.735,5.664 c -0.469,0 -0.937,-0.115 -1.364,-0.346 -5.034,-2.712 -5.729,-4.127 -5.729,-5.252 0,-2.38 2.984,-4.107 7.093,-4.107 4.11,0 7.093,1.727 7.093,4.107 0,1.123 -0.693,2.537 -5.728,5.253 -0.427,0.23 -0.896,0.345 -1.365,0.345"
       style="fill:#2f499d;fill-rule:nonzero"
       id="path668" />
  </g>
  <g
     transform="matrix(0.11413613,0,0,0.1209978,8.0127148,8.8100923)"
     id="g674"
     style="clip-rule:evenodd;fill-rule:evenodd;stroke-linejoin:round;stroke-miterlimit:2">
    <path
       d="m 0,17.004 c -5.962,0 -10.701,-4.74 -10.701,-10.566 V 1.584 C -10.701,0.709 -9.993,0 -9.117,0 c 0.876,0 1.585,0.709 1.585,1.584 v 4.854 c 0,4.079 3.319,7.397 7.397,7.397 4.214,0 7.533,-3.318 7.533,-7.397 V 1.972 c 0,-0.875 0.709,-1.584 1.584,-1.584 0.876,0 1.585,0.709 1.585,1.584 v 4.466 c 0,5.826 -4.74,10.566 -10.567,10.566"
       style="fill:#2f499d;fill-rule:nonzero"
       id="path672" />
  </g>
  <g
     transform="matrix(0,-0.1209978,-0.11413613,0,7.9520056,9.3425086)"
     id="g678"
     style="clip-rule:evenodd;fill-rule:evenodd;stroke-linejoin:round;stroke-miterlimit:2">
    <path
       d="m -5.722,-6.651 c -1.985,0 -3.594,2.77 -3.594,6.186 0,3.417 1.609,6.187 3.594,6.187 1.985,0 2.665,-2.77 2.665,-6.187 0,-3.416 -0.68,-6.186 -2.665,-6.186"
       style="fill:#f3928c;fill-rule:nonzero"
       id="path676" />
  </g>
</svg>
